<svg id="zoom_out_map_black_24dp" xmlns="http://www.w3.org/2000/svg" width="50.203" height="50.203" viewBox="0 0 50.203 50.203">
  <path id="Path_2446" data-name="Path 2446" d="M0,0H50.2V50.2H0Z" fill="none"/>
  <path id="Path_2447" data-name="Path 2447" d="M28.1,3l4.811,4.811-6.045,6,2.97,2.97,6-6.045,4.811,4.811V3ZM3,15.551,7.811,10.74l6,6.045,2.97-2.97-6.045-6L15.551,3H3Zm12.551,25.1L10.74,35.841l6.045-6-2.97-2.97-6,6.045L3,28.1V40.652ZM40.652,28.1l-4.811,4.811-6-6.045-2.97,2.97,6.045,6L28.1,40.652H40.652Z" transform="translate(3.275 3.275)" fill="#818181"/>
</svg>
