<svg xmlns="http://www.w3.org/2000/svg" width="17" height="22" viewBox="0 0 17 14.759">
  <g id="Group_11.1" data-name="Group 11.1" transform="translate(-55.5 -478.5)">
    <path id="Rectangle-20_9_" d="M0,0H3.2V4H0Z" transform="translate(72 484.6) rotate(180)" fill="none" stroke="#2e84be" stroke-linecap="round" stroke-linejoin="round" stroke-width="1"/>
    <path id="Path-69_22_" d="M0,0H8" transform="translate(70.4 484.759) rotate(90)" fill="none" stroke="#2e84be" stroke-linecap="round" stroke-linejoin="round" stroke-width="1"/>
    <path id="Rectangle-20_10_" d="M0,0H3.2V4H0Z" transform="translate(65.6 487.8) rotate(180)" fill="none" stroke="#2e84be" stroke-linecap="round" stroke-linejoin="round" stroke-width="1"/>
    <path id="Path-69_23_" d="M0,0H4" transform="translate(64 488.759) rotate(90)" fill="none" stroke="#2e84be" stroke-linecap="round" stroke-linejoin="round" stroke-width="1"/>
    <path id="Path-69_24_" d="M0,0H4" transform="translate(64 479.159) rotate(90)" fill="none" stroke="#2e84be" stroke-linecap="round" stroke-linejoin="round" stroke-width="1"/>
    <path id="Path-69_25_" d="M0,0H.8" transform="translate(70.4 479.159) rotate(90)" fill="none" stroke="#2e84be" stroke-linecap="round" stroke-linejoin="round" stroke-width="1"/>
    <path id="Rectangle-20_11_" d="M0,0H3.2V4H0Z" transform="translate(59.2 491) rotate(180)" fill="none" stroke="#2e84be" stroke-linecap="round" stroke-linejoin="round" stroke-width="1"/>
    <path id="Path-69_26_" d="M8,0H0" transform="translate(57.6 479) rotate(90)" fill="none" stroke="#2e84be" stroke-linecap="round" stroke-linejoin="round" stroke-width="1"/>
    <path id="Path-69_27_" d="M.8,0H0" transform="translate(57.6 491.8) rotate(90)" fill="none" stroke="#2e84be" stroke-linecap="round" stroke-linejoin="round" stroke-width="1"/>
  </g>
</svg>
