<svg xmlns="http://www.w3.org/2000/svg" width="17" height="17" viewBox="0 0 16 15.797">
  <g id="reuse" transform="translate(0 -0.102)">
    <g id="Group">
      <g id="Vector" transform="translate(0 0.102)" fill="none">
        <path d="M1.134,7.064A6.588,6.588,0,0,1,5.377,2.028l-.1.178a.517.517,0,1,0,.9.517l.713-1.234A.517.517,0,0,0,6.694.782L5.459.069a.517.517,0,1,0-.517.9l.129.074A7.6,7.6,0,0,0,.457,10.8a.517.517,0,0,0,.972-.354A6.557,6.557,0,0,1,1.134,7.064Z" stroke="none"/>
        <path d="M 0.9431090950965881 11.14090061187744 C 0.7319291234016418 11.14090061187744 0.5337691307067871 11.0107307434082 0.4572390913963318 10.8009204864502 C 0.001899105729535222 9.552680969238281 -0.1162108927965164 8.198330879211426 0.1157291084527969 6.884180545806885 C 0.5950590968132019 4.165130615234375 2.522789001464844 1.94148051738739 5.070769309997559 1.039360523223877 L 4.941978931427002 0.9649704694747925 C 4.694659233093262 0.8221704959869385 4.609989166259766 0.5059105157852173 4.752779006958008 0.2585904896259308 C 4.89556884765625 0.01134035922586918 5.211699485778809 -0.07345935702323914 5.459228992462158 0.06940049678087234 L 6.693809032440186 0.7823904752731323 C 6.812609195709229 0.8510004878044128 6.899209022521973 0.9639304876327515 6.934719085693359 1.096450448036194 C 6.970229148864746 1.228900551795959 6.951539039611816 1.370040535926819 6.882939338684082 1.488840460777283 L 6.170009136199951 2.723080396652222 C 6.027187824249268 2.970366954803467 5.711028099060059 3.054956912994385 5.463639259338379 2.912200450897217 C 5.21631908416748 2.769340515136719 5.131649017333984 2.453080415725708 5.274508953094482 2.205760478973389 L 5.376969337463379 2.028220415115356 C 3.194689035415649 2.81609058380127 1.545929074287415 4.728230476379395 1.134169101715088 7.063790321350098 C 0.9338091015815735 8.199230194091797 1.035709142684937 9.368860244750977 1.428849101066589 10.44646072387695 C 1.526759147644043 10.71474075317383 1.388589143753052 11.01156044006348 1.12023913860321 11.10946083068848 C 1.06183910369873 11.13077068328857 1.0019291639328 11.14090061187744 0.9431090950965881 11.14090061187744 Z" stroke="none" fill="#2e84be"/>
      </g>
      <g id="Vector-2" data-name="Vector" transform="translate(1.655 12.337)" fill="none">
        <path d="M11.7.122a.517.517,0,0,0-.729.063A6.585,6.585,0,0,1,4.8,2.429,6.572,6.572,0,0,1,1.777,1.037h.166A.517.517,0,1,0,1.943,0H.566A.516.516,0,0,0,0,.465H0C0,.482,0,.5,0,.511S0,.517,0,.519V1.944a.517.517,0,0,0,.517.517h0a.517.517,0,0,0,.517-.517v-.18A7.608,7.608,0,0,0,4.621,3.447a7.536,7.536,0,0,0,1.31.115A7.63,7.63,0,0,0,11.759.851.517.517,0,0,0,11.7.122Z" stroke="none"/>
        <path d="M 0.5171995162963867 -4.76837158203125e-07 C 0.5335578918457031 -4.76837158203125e-07 0.5499229431152344 0.0007717609405517578 0.5661983489990234 0.002309322357177734 L 1.942888259887695 0.002309322357177734 C 2.228548049926758 0.002309322357177734 2.460007667541504 0.2338392734527588 2.460007667541504 0.5194191932678223 C 2.460007667541504 0.8049991130828857 2.228548049926758 1.036529302597046 1.942888259887695 1.036529302597046 L 1.776517868041992 1.036529302597046 C 2.643267631530762 1.747799158096313 3.684798240661621 2.231889247894287 4.801007747650146 2.428739070892334 C 7.100639343261719 2.834629058837891 9.463217735290527 1.974569201469421 10.96753787994385 0.1850192546844482 C 11.15127754211426 -0.03361058235168457 11.47740840911865 -0.06188058853149414 11.69610786437988 0.1219291687011719 C 11.9147481918335 0.3056793212890625 11.94301795959473 0.631939172744751 11.75919818878174 0.8505091667175293 C 10.01802635192871 2.921774387359619 7.28296422958374 3.916677951812744 4.621397972106934 3.447169303894043 C 3.29234790802002 3.212809085845947 2.054388046264648 2.627099275588989 1.034297943115234 1.764629244804382 L 1.034228324890137 1.944719195365906 C 1.034088134765625 2.230229377746582 0.8026275634765625 2.46161937713623 0.5171079635620117 2.46161937713623 L 0.5169076919555664 2.46161937713623 C 0.2313175201416016 2.461479187011719 -0.0001420974731445312 2.229889154434204 -1.9073486328125e-06 1.944299221038818 L 0.0005483627319335938 0.5191493034362793 C 0.0005483627319335938 0.5165293216705322 0.0008983612060546875 0.5140392780303955 0.0009679794311523438 0.5114192962646484 C 0.001108169555664062 0.4965291023254395 0.001788139343261719 0.4816391468048096 0.003237724304199219 0.4668092727661133 C 0.00323486328125 0.4662289619445801 0.003357887268066406 0.4656376838684082 0.003447532653808594 0.4650192260742188 C 0.01654815673828125 0.3356091976165771 0.07783794403076172 0.210949182510376 0.1853981018066406 0.1207592487335205 C 0.2822036743164062 0.03956389427185059 0.4000129699707031 -4.76837158203125e-07 0.5171995162963867 -4.76837158203125e-07 Z" stroke="none" fill="#2e84be"/>
      </g>
      <g id="Vector-3" data-name="Vector" transform="translate(8.308 0.817)" fill="none">
        <path d="M7.623,9.007a.517.517,0,0,0-.706-.189l-.17.1c.007-.037.015-.073.022-.109A7.546,7.546,0,0,0,5.51,3.131,7.544,7.544,0,0,0,.607.008.517.517,0,0,0,.427,1.026a6.517,6.517,0,0,1,4.235,2.7A6.519,6.519,0,0,1,5.751,8.617l-.076-.131A.517.517,0,1,0,4.78,9l.713,1.235a.517.517,0,0,0,.706.189l1.235-.713A.517.517,0,0,0,7.623,9.007Z" stroke="none"/>
        <path d="M 5.940381050109863 10.49591255187988 C 5.895561218261719 10.49591255187988 5.850611209869385 10.49005317687988 5.806550979614258 10.47826290130615 C 5.674031257629395 10.44275283813477 5.561100959777832 10.35608291625977 5.492491245269775 10.2372932434082 L 4.77984094619751 9.002492904663086 C 4.637121200561523 8.755112648010254 4.721861362457275 8.4388427734375 4.969241142272949 8.296122550964355 C 5.216560840606689 8.15333366394043 5.532830715179443 8.238203048706055 5.675621032714844 8.485523223876953 L 5.751390933990479 8.616732597351074 C 6.052151203155518 6.894052982330322 5.665831089019775 5.156972885131836 4.662631034851074 3.724302768707275 C 3.657441139221191 2.288652896881104 2.153261184692383 1.330552816390991 0.4274211525917053 1.026492834091187 C 0.1461811363697052 0.9769128561019897 -0.04163885861635208 0.7087028622627258 0.007941139861941338 0.4274628460407257 C 0.05737113952636719 0.1462228447198868 0.3255808055400848 -0.04158717021346092 0.6068911552429199 0.007912837900221348 C 2.604801177978516 0.3598928451538086 4.346021175384521 1.469072818756104 5.509731292724609 3.130992889404297 C 6.673440933227539 4.792922973632812 7.120291233062744 6.808562755584717 6.768031120300293 8.806822776794434 C 6.761620998382568 8.843432426452637 6.753351211547852 8.879762649536133 6.746321201324463 8.916313171386719 L 6.91641092300415 8.818122863769531 C 7.163659572601318 8.67533016204834 7.480061054229736 8.760072708129883 7.622791290283203 9.007392883300781 C 7.765581130981445 9.254702568054199 7.680840969085693 9.570972442626953 7.433521270751953 9.713832855224609 L 6.198941230773926 10.42662239074707 C 6.119651317596436 10.47240257263184 6.030361175537109 10.49591255187988 5.940381050109863 10.49591255187988 Z" stroke="none" fill="#2e84be"/>
      </g>
    </g>
  </g>
</svg>
