<svg id="help" xmlns="http://www.w3.org/2000/svg" width="17" height="22" viewBox="0 0 16 16">
<g id="Group_9795" data-name="Group 9795">
    <g id="Group_9794" data-name="Group 9794">
    <path id="Path_2384" data-name="Path 2384" d="M222.284,343.22a.625.625,0,0,0,0,1.25.625.625,0,1,0,0-1.25Z" transform="translate(-214.535 -332.174)" fill="#2d84b7"/>
    <path id="Path_2385" data-name="Path 2385" d="M185.621,140c-1.1,0-1.6.649-1.6,1.088a.466.466,0,0,0,.487.463c.438,0,.26-.625,1.088-.625.406,0,.731.179.731.552,0,.438-.455.69-.722.917a1.486,1.486,0,0,0-.544,1.234c0,.422.114.544.446.544.4,0,.479-.179.479-.333a1.019,1.019,0,0,1,.455-1.015,2.078,2.078,0,0,0,.909-1.486C187.35,140.578,186.66,140,185.621,140Z" transform="translate(-177.704 -135.027)" fill="#2d84b7"/>
    <path id="Path_2386" data-name="Path 2386" d="M8,0A8,8,0,0,0,0,8v7.375A.625.625,0,0,0,.625,16H8A8,8,0,0,0,8,0ZM8,14.75H1.25V8A6.75,6.75,0,1,1,8,14.75Z" fill="#2d84b7"/>
    </g>
</g>
</svg>