<svg xmlns="http://www.w3.org/2000/svg" width="22" height="30" viewBox="0 0 20.811 13.214">
    <g id="group" transform="translate(0 -92.25)">
        <g id="Group_9840" data-name="Group 9840" transform="translate(0 92.25)">
            <path id="Path_2437" data-name="Path 2437" d="M18,98.064a2.376,2.376,0,1,0-2.726,0,4.117,4.117,0,0,0-1.4.824,5.327,5.327,0,0,0-1.927-1.05,3.01,3.01,0,1,0-3.113,0,5.371,5.371,0,0,0-1.906,1.038,4.15,4.15,0,0,0-1.388-.807,2.376,2.376,0,1,0-2.726,0A4.17,4.17,0,0,0,0,102.009v.272a.018.018,0,0,0,.016.016H5.052a5.538,5.538,0,0,0-.045.7v.28A2.19,2.19,0,0,0,7.2,105.464H13.58a2.19,2.19,0,0,0,2.191-2.191v-.28a5.538,5.538,0,0,0-.045-.7h5.069a.018.018,0,0,0,.016-.016v-.272A4.186,4.186,0,0,0,18,98.064Zm-3.08-1.948a1.717,1.717,0,1,1,1.75,1.717H16.6A1.715,1.715,0,0,1,14.918,96.116ZM8.025,95.26a2.351,2.351,0,1,1,2.487,2.347h-.272A2.355,2.355,0,0,1,8.025,95.26Zm-5.584.856a1.717,1.717,0,1,1,1.75,1.717H4.126A1.717,1.717,0,0,1,2.442,96.116Zm2.726,5.518H.667a3.518,3.518,0,0,1,3.467-3.142h.049a3.482,3.482,0,0,1,2.244.836A5.406,5.406,0,0,0,5.168,101.634Zm9.936,1.639a1.534,1.534,0,0,1-1.532,1.532H7.189a1.534,1.534,0,0,1-1.532-1.532v-.28a4.73,4.73,0,0,1,4.583-4.723c.045,0,.095,0,.14,0s.095,0,.14,0a4.73,4.73,0,0,1,4.583,4.723Zm.49-1.639a5.392,5.392,0,0,0-1.248-2.289,3.5,3.5,0,0,1,2.265-.852h.049a3.518,3.518,0,0,1,3.467,3.142Z" transform="translate(0 -92.25)" fill="#2d84b7"/>
        </g>
    </g>
</svg>