<svg xmlns="http://www.w3.org/2000/svg" width="12.51" height="16.68" viewBox="0 0 12.51 16.68">
<g id="profit-report" transform="translate(-64)">
    <g id="Group_9853" data-name="Group 9853" transform="translate(64 0)">
    <g id="Group_9852" data-name="Group 9852">
        <path id="Path_2441" data-name="Path 2441" d="M76.469,4.491a.516.516,0,0,0-.113-.169L72.188.153A.529.529,0,0,0,71.819,0H65.042A1.044,1.044,0,0,0,64,1.042V15.637a1.044,1.044,0,0,0,1.042,1.042H75.467a1.044,1.044,0,0,0,1.042-1.042V4.691A.52.52,0,0,0,76.469,4.491ZM72.34,1.78l2.39,2.39H72.34Zm3.127,13.858H65.042V1.042H71.3V4.17A1.044,1.044,0,0,0,72.34,5.212h3.127Z" transform="translate(-64 0)" fill="#2e84be"/>
    </g>
    </g>
    <g id="Group_9855" data-name="Group 9855" transform="translate(67.127 10.425)">
    <g id="Group_9854" data-name="Group 9854">
        <path id="Path_2442" data-name="Path 2442" d="M160.521,320a.521.521,0,0,0-.521.521v3.127a.521.521,0,0,0,1.042,0v-3.127A.521.521,0,0,0,160.521,320Z" transform="translate(-160 -320)" fill="#2e84be"/>
    </g>
    </g>
    <g id="Group_9857" data-name="Group 9857" transform="translate(72.34 6.255)">
    <g id="Group_9856" data-name="Group 9856">
        <path id="Path_2443" data-name="Path 2443" d="M320.521,192a.521.521,0,0,0-.521.521v7.3a.521.521,0,0,0,1.042,0v-7.3A.521.521,0,0,0,320.521,192Z" transform="translate(-320 -192)" fill="#2e84be"/>
    </g>
    </g>
    <g id="Group_9859" data-name="Group 9859" transform="translate(69.734 8.34)">
    <g id="Group_9858" data-name="Group 9858">
        <path id="Path_2444" data-name="Path 2444" d="M240.521,256a.521.521,0,0,0-.521.521v5.212a.521.521,0,0,0,1.042,0v-5.212A.521.521,0,0,0,240.521,256Z" transform="translate(-240 -256)" fill="#2e84be"/>
    </g>
    </g>
</g>
</svg>