<svg xmlns="http://www.w3.org/2000/svg" width="20" height="22" viewBox="0 0 20 22">
<g id="loan" transform="translate(-88.429 -9.856)">
    <path id="Path_25" data-name="Path 25" d="M92.008,19.953v-.569h.313a3.95,3.95,0,0,1,.588.045l-.921,1.257a4.792,4.792,0,0,0,.207,5.947,5.659,5.659,0,0,0,4.33,2.008h0a5.659,5.659,0,0,0,4.33-2.008,4.792,4.792,0,0,0,.207-5.947l-.932-1.27v-.023a1.075,1.075,0,0,0-.179-.6,1.083,1.083,0,0,0,.208-1.708,1.106,1.106,0,0,0,.012-1.551,1.035,1.035,0,0,0-.427-1.733,1.778,1.778,0,0,0,.831-1.645v-.027a.32.32,0,0,0-.32-.32h-1.02a8.2,8.2,0,0,1,.479-.983A.486.486,0,0,0,99.3,10.1l-4.245-.045a.488.488,0,0,0-.365.151.473.473,0,0,0-.053.574l.2.32a6.53,6.53,0,0,1,.388.712H94.94a1.549,1.549,0,0,0-1.556,1.281,1.991,1.991,0,0,1-.084.226,1.778,1.778,0,0,1-.926.3h-.365v-.685a.32.32,0,0,0-.32-.32h-2.74a.32.32,0,0,0-.32.32v7.01a.32.32,0,0,0,.32.32h2.74A.32.32,0,0,0,92.008,19.953Zm8.535,1.11a4.154,4.154,0,0,1-.179,5.156,5.032,5.032,0,0,1-7.682,0,4.154,4.154,0,0,1-.179-5.156l1.079-1.472a3.95,3.95,0,0,1,.779.362,2.113,2.113,0,0,0-.581,2.2.32.32,0,1,0,.61-.192,1.875,1.875,0,0,1-.054-.665,1.258,1.258,0,0,1,.7-1.032,5.7,5.7,0,0,0,1.785.207h.75l.076.138a3.06,3.06,0,0,1,.378,1.689l-.006.1a.32.32,0,0,0,.3.341h.021a.32.32,0,0,0,.32-.3l.006-.1a3.7,3.7,0,0,0-.35-1.833c.185.07.747.375.854,1.5a.32.32,0,0,0,.32.29h.03a.32.32,0,0,0,.288-.348,2.745,2.745,0,0,0-.534-1.495,1.084,1.084,0,0,0,.595-.337ZM99.9,12.454a.909.909,0,0,1-.9.893H98.77A8.2,8.2,0,0,1,99,12.454H99.9ZM95.592,10.7l.036.018a1.436,1.436,0,0,1,.837,1.347.32.32,0,1,0,.631.107,1.922,1.922,0,0,0-.458-1.457l1.011.011a2.438,2.438,0,0,0-.121,1.205.321.321,0,0,0,.409.25.328.328,0,0,0,.22-.373,1.964,1.964,0,0,1,.176-1.075l.694.007a8.8,8.8,0,0,0-.94,2.823l-.035.228-1.373.026a.253.253,0,0,1-.174-.093,8.468,8.468,0,0,0-1.174-3.023Zm-3.583,3.563h.365a2.415,2.415,0,0,0,1.291-.415.933.933,0,0,0,.326-.55c.165-.5.33-.848.948-.848h.54a9.837,9.837,0,0,1,.294.961v.142a.316.316,0,0,0,0,.035.961.961,0,0,0,.905.864h.006l2.762-.051a.4.4,0,1,1,0,.792H98.318a.32.32,0,0,0,0,.641h1.054a.47.47,0,1,1,0,.939H98.314a.32.32,0,0,0,0,.641h1.077a.445.445,0,1,1,0,.89H97.843a.32.32,0,0,0,0,.641h1.2a.442.442,0,1,1,0,.884H96.819a3.809,3.809,0,0,1-2.08-.4,4.582,4.582,0,0,0-2.417-.689h-.313Zm-.641,5.365h-2.1v-6.37h2.1Z" transform="translate(0)" fill="#2d84b7" stroke="#179bd7" stroke-width="0.4"/>
    <path id="Path_26" data-name="Path 26" d="M221.127,248.226a.4.4,0,0,1,.4.4.32.32,0,0,0,.641,0,1.045,1.045,0,0,0-.724-.993v-.128a.32.32,0,0,0-.641,0v.128a1.044,1.044,0,0,0,.32,2.037.4.4,0,0,1,0,.808h-.011a.4.4,0,0,1-.4-.4.32.32,0,0,0-.641,0,1.045,1.045,0,0,0,.724.993v.161a.32.32,0,1,0,.641,0v-.161a1.044,1.044,0,0,0-.32-2.037.4.4,0,1,1,0-.808Z" transform="translate(-124.445 -224.487)" fill="#2d84b7" stroke="#179bd7" stroke-width="0.4"/>
</g>
</svg>